<?xml version="1.0" encoding="UTF-8"?>
<svg id="Layer_2" data-name="Layer 2" xmlns="http://www.w3.org/2000/svg" viewBox="0 0 199.1 199.1">
  <defs>
    <style>
      .cls-1 {
        fill: #d8afbd;
      }

      .cls-2 {
        fill: #4f4f4f;
      }

      .cls-3 {
        stroke-width: 4px;
      }

      .cls-3, .cls-4 {
        fill: #9dbfb2;
        stroke: #4f4f4f;
        stroke-miterlimit: 10;
      }
    </style>
  </defs>
  <g id="Layer_3" data-name="Layer 3">
    <g>
      <g id="cercles">
        <circle class="cls-4" cx="99.5" cy="99.5" r="92.5"/>
        <circle class="cls-3" cx="99.5" cy="99.5" r="97.5"/>
      </g>
      <g id="patte">
        <g>
          <path class="cls-1" d="M111.4,178.1c-5,8.5-18.3,10.6-25.7,4-5.7-5.2-7.2-13.5-7.6-21.2-.4-8.1,.2-16.4,2.9-24.1s7.6-14.8,14.6-18.9c8.4-5,18.7-5.4,28.5-4.7,5.6-1.2,44.3,10.7,49.1,19.5,1.3,2.4,1.5,5.2,1.2,7.9-.6,4.8-2.8,9.7-6.9,12.4s-9.8,3.1-13.7,0c-2.9-2.3-4.3-6.1-5.5-9.7l4.4,10.8c-1.7,7.8-6.7,14.8-13.5,19-4.8,3-10.4,4.5-16,5.5-2.1,.4-4.3,.7-6.4,.3-5.4-1.1-8.8-6.5-10.8-11.6l5.3,10.9Z"/>
          <path class="cls-2" d="M110.1,177.3c-3.5,5.8-11.1,8.3-17.5,6.7s-11.5-10.2-12.5-17.8c-2.4-17.3,1.1-40,18.7-48.4,4.2-2,8.9-2.9,13.5-3.3s4.7-.2,7.1-.1,2.3,0,3.4,.1,1.1,0,1.7,0-.3,0,0,0c3.7-.2,7.5,1,11.2,2,5.9,1.6,11.7,3.5,17.4,5.7s10.4,4.2,14.9,7.4,3,2.2,3.7,3.4c2.2,3.6,1.4,8.7-.2,12.4s-4.7,7-8.9,7.9-8.1-.9-10.3-4.5-1.8-3.9-2.5-6l-2.9,.8c1,2.4,2,4.8,3,7.2l.9,2.1c.2,.4,.3,.9,.5,1.3s-.4,0,0-.3c-.3,.2-.4,1.4-.5,1.8-.4,1.3-.9,2.6-1.5,3.9-2.4,4.9-6.1,9.2-10.7,12s-5.7,2.9-8.8,3.8-6.1,1.6-9.2,1.9-6-.6-8.3-2.9-3.6-4.9-4.7-7.8l-2.7,1.2c1.8,3.6,3.5,7.3,5.3,10.9s3.4,.2,2.6-1.5c-1.8-3.6-3.5-7.3-5.3-10.9s-3.4-.4-2.7,1.2c2,5.2,5.4,10.9,11.1,12.5s7.1,.1,10.5-.6,6.5-1.6,9.5-3c5.8-2.5,10.7-6.7,14.2-12s2.9-5.4,3.8-8.3,.7-1.9,.4-2.7-.4-.9-.5-1.3c-1.3-3.1-2.6-6.2-3.8-9.4s-3.5-1.1-2.9,.8c1.5,4.4,3.3,9.1,7.5,11.5s9,1.8,12.9-.4c4-2.3,6.7-6.5,7.9-10.9s1.3-9.1-1.2-12.7-3.2-3.2-5-4.5-5.1-3-7.7-4.2c-6.2-2.9-12.6-5.2-19.1-7.2-5.1-1.6-10.4-3.1-15.7-3.7s-1.4-.1-2,0c-1.9,.2-4-.2-5.9-.2-5.1,0-10.3,.3-15.2,1.6-9.6,2.6-17.1,9.2-21.5,18-4.8,9.5-5.7,20.5-5.1,31s2.7,18.7,10.9,23.3,15.6,2.7,21.5-2.1,2.7-2.6,3.6-4.3-1.6-3.2-2.6-1.5Z"/>
        </g>
        <g>
          <path class="cls-1" d="M78.3,16.6c16.2,.2,30.4,11.8,39.2,25.4,3.5,5.4,6.5,11.4,6.7,17.8,.2,5.2-1.5,10.3-3.1,15.2-.3,1.1-.7,2.2-1.5,2.9-1.7,1.7-4.4,1.3-6.7,.6-6.8-2-13-5.8-17.9-10.9-6.1-6.4-10-14.5-13.8-22.4-4.1-8.6-8.2-18.8-4-27.4"/>
          <path class="cls-2" d="M78.3,18.1c9.8,.1,18.9,4.6,26.1,11s7,6.9,9.8,10.9,6.1,9.2,7.6,14.5,.5,11.7-1.3,17.5-1.1,5.4-3.7,5.7-4.9-.9-7-1.7c-5-2-9.5-5.1-13.3-8.9s-6.9-8.7-9.5-13.6-5.7-11.1-7.8-16.9-3.4-12.2-.6-17.9-1.8-3.3-2.6-1.5c-5.5,11.4,1.6,24.2,6.6,34.4s5.7,10.7,9.6,15.3,8.5,8.1,13.7,10.7,11.3,5.5,14.9,1.3,1.3-2.3,1.7-3.6,1.1-3.3,1.5-5c.9-3.1,1.5-6.4,1.5-9.7,0-6.2-2.5-12.1-5.7-17.4s-6.2-9.1-10-13c-8.4-8.5-19.4-14.9-31.6-15.1s-1.9,3,0,3h0Z"/>
        </g>
        <g>
          <path class="cls-1" d="M142.7,47c13.1,3.6,22.8,14.9,29.2,26.9,3.2,5.9,5.8,12.4,5.1,19.1-.7,6.6-5.9,13.2-12.5,13.4-7.1,.3-12.5-6.1-15.9-12.3-5.7-10.6-8.9-22.5-9.2-34.5,0-4.2,.2-8.7,2.2-12.4"/>
          <path class="cls-2" d="M142.3,48.4c8.7,2.4,15.7,8.3,21.2,15.2s5.1,7.3,7.2,11.2,4.6,9.6,4.8,14.8c.2,4.3-1,8.6-4,11.7s-6.9,4.3-10.9,2.9-7.1-5-9.3-8.4-4.7-8.8-6.4-13.5-3.2-11.3-3.8-17.2-1-12.1,1.6-17.3-1.7-3.2-2.6-1.5c-2.6,5.2-2.6,11.1-2.2,16.8,.4,5.7,1.4,11.3,3,16.8s3.9,10.9,6.7,15.9,5.4,8,9.5,10.3,9,2.5,13.1,0,6.6-6.4,7.7-10.7,0-11.2-2-16.3-4.5-9.3-7.5-13.6c-6.3-9.1-14.7-17-25.5-20.1s-2.7,2.4-.8,2.9h0Z"/>
        </g>
        <g>
          <path class="cls-1" d="M42.3,36.6c11.5,2.6,22,9.5,28.8,19.1s10,21.8,8.6,33.5c-.4,3.8-1.6,7.9-4.7,9.9-3,2-7,1.5-10.5,.4-12.4-3.7-22.5-14.2-25.9-26.7-1.6-5.8-1.7-11.9-1.8-17.9,0-5.9,0-12.1,3.1-17.2"/>
          <path class="cls-2" d="M41.9,38c10,2.3,19.1,7.8,25.8,15.6,7,8.3,10.9,19.2,10.9,30.1s0,10.6-3.8,13.7-10.3,.9-14.3-1c-8.6-4-15.7-11.3-19.1-20.1s-2.9-12.8-3-19.4-.4-12.8,2.9-18.3-1.6-3.2-2.6-1.5c-3.1,5.3-3.4,11.5-3.3,17.5s.2,13.4,2.2,19.7c3,9.9,10.1,18.5,19.2,23.5s10.5,4.9,15.8,3.8,7.9-6.5,8.6-11.6c1.6-11.8-1.4-24.2-8-34.1-7-10.5-18.1-18-30.4-20.8s-2.7,2.5-.8,2.9h0Z"/>
        </g>
        <g>
          <path class="cls-1" d="M27.4,111c-4.1,3.7-4.2,10-3.4,15.4,1.2,7.8,3.5,15.3,7,22.4,1.7,3.5,3.9,7.1,7.2,9.2,3,1.9,6.6,2.6,10.1,2.4,3-.1,6.3-.8,8.4-3.1,2.8-3,2.7-7.6,1.9-11.7-3.1-16.3-15.1-30.5-30.6-36.4"/>
          <path class="cls-2" d="M26.4,109.9c-3.2,3-4.2,7.5-4.2,11.8s1.2,9.9,2.5,14.6,3.4,10.2,5.9,14.9,5.3,7.9,9.9,9.7,9.8,1.8,14.1-.1,6.2-6.3,6.1-10.8-1.3-8.8-2.9-12.8-3.7-7.9-6.3-11.4c-5.8-8-13.8-14.2-23-17.7s-2.6,2.2-.8,2.9c14.5,5.6,25.7,18.6,29.2,33.7s1.6,8.1-.7,11.3-7.7,3.5-11.4,3-7.9-3.2-10.3-6.9-4.3-8.4-5.8-12.8-2.9-10-3.4-15.1,0-8.8,3.2-11.9-.7-3.4-2.1-2.1h0Z"/>
        </g>
      </g>
    </g>
  </g>
</svg>